<?xml version="1.0" standalone="no"?>
<!DOCTYPE svg PUBLIC "-//W3C//DTD SVG 20010904//EN"
 "http://www.w3.org/TR/2001/REC-SVG-20010904/DTD/svg10.dtd">
<svg version="1.0" xmlns="http://www.w3.org/2000/svg"
 width="500.000000pt" height="500.000000pt" viewBox="0 0 500.000000 500.000000"
 preserveAspectRatio="xMidYMid meet">

<g transform="translate(0.000000,500.000000) scale(0.100000,-0.100000)"
fill="#000000" stroke="none">
<path d="M0 2500 l0 -2500 2500 0 2500 0 0 2500 0 2500 -2500 0 -2500 0 0
-2500z m2678 1827 l112 -113 -2 -344 c-3 -337 -3 -345 -23 -345 -20 0 -20 8
-23 335 l-2 335 -97 97 -98 98 -140 0 -141 0 -97 -99 -97 -98 1 -189 c0 -104
3 -207 7 -228 6 -35 9 -37 21 -23 12 15 46 17 307 17 320 0 329 -2 322 -59 -6
-48 -28 -51 -335 -49 -264 3 -283 4 -296 22 -13 17 -14 14 -20 -35 -4 -30 -7
-69 -7 -87 0 -36 -26 -55 -41 -31 -5 8 -9 50 -9 93 l0 79 -21 -19 c-19 -17
-41 -19 -259 -22 -197 -2 -241 -6 -251 -18 -19 -23 -126 -2039 -109 -2059 11
-13 145 -15 1024 -15 774 0 1015 3 1024 12 18 18 16 67 -38 1074 -27 511 -50
939 -50 951 0 50 -14 53 -258 53 -243 0 -274 6 -280 49 -2 12 4 31 14 42 16
18 34 19 301 19 335 0 317 6 327 -112 3 -40 31 -538 61 -1107 50 -937 54
-1037 40 -1058 l-16 -23 -1127 2 -1127 3 -9 28 c-12 33 101 2201 115 2229 19
35 45 38 323 38 231 0 277 -2 290 -15 8 -8 17 -15 20 -15 3 0 6 106 6 237 l0
236 112 114 112 113 161 0 160 0 113 -113z m-590 -853 c15 -12 36 -37 47 -56
16 -30 17 -40 7 -62 -15 -34 -42 -33 -74 4 -69 78 -173 -5 -197 -158 -15 -97
21 -238 71 -275 46 -35 93 -9 142 80 44 78 114 42 88 -45 -15 -49 -74 -117
-123 -142 -104 -54 -244 10 -300 135 -30 68 -43 167 -30 237 22 127 100 248
186 290 52 25 143 21 183 -8z m929 -168 c4 -8 17 -15 28 -18 28 -5 32 -38 6
-45 -20 -5 -21 -12 -21 -128 0 -97 -3 -125 -15 -135 -12 -10 -18 -10 -31 1
-13 11 -15 33 -12 136 3 109 1 122 -14 127 -22 5 -24 36 -3 36 8 0 19 9 25 20
13 23 26 26 37 6z m-579 -138 c4 -100 -24 -137 -65 -84 l-19 24 -12 -30 c-7
-20 -16 -29 -29 -26 -26 5 -32 148 -7 169 15 12 19 11 33 -11 9 -13 24 -33 33
-44 17 -21 17 -20 18 20 0 45 6 56 30 52 11 -3 16 -19 18 -70z m170 15 c6
-103 -29 -155 -69 -102 l-18 24 -10 -28 c-7 -19 -17 -27 -29 -25 -14 3 -17 16
-20 82 -4 107 21 121 70 41 16 -27 18 -28 18 -8 0 39 19 75 38 71 13 -2 18
-15 20 -55z m155 43 c9 -23 -17 -36 -74 -39 -42 -1 -54 1 -54 13 0 33 116 57
128 26z m-512 -15 c47 -37 21 -151 -33 -151 -11 0 -17 4 -14 9 3 5 -2 8 -11 7
-26 -2 -40 47 -23 81 7 15 12 32 11 37 -9 37 33 47 70 17z m659 4 c14 -17 10
-47 -9 -53 -8 -3 -11 0 -8 5 3 5 -1 10 -9 10 -17 0 -29 -39 -20 -63 5 -13 9
-14 22 -4 11 10 18 10 27 1 9 -9 8 -18 -4 -39 -12 -21 -22 -27 -49 -27 -24 0
-34 4 -32 13 1 8 -2 11 -7 8 -5 -3 -14 1 -21 9 -19 23 -7 102 21 131 25 27 70
32 89 9z m-165 -94 c-15 -15 -88 -23 -104 -12 -23 15 4 39 47 43 40 4 73 -15
57 -31z m23 -55 c5 -26 -15 -36 -76 -36 -38 0 -54 4 -59 15 -7 20 -1 26 39 35
53 13 92 8 96 -14z m-20 -271 c2 -27 1 -124 -3 -214 -6 -141 -10 -166 -26
-182 -47 -47 -104 0 -144 122 -15 44 -30 78 -33 74 -3 -3 -9 -40 -12 -83 -4
-69 -7 -77 -25 -77 -19 0 -20 7 -22 145 -3 156 5 192 44 198 28 4 43 -19 97
-148 24 -55 45 -103 48 -105 3 -3 8 64 11 149 3 85 8 160 12 166 4 6 17 10 28
8 19 -3 23 -11 25 -53z m-321 -461 c50 -37 73 -81 73 -140 0 -29 -5 -64 -11
-78 -11 -23 -8 -29 39 -73 94 -89 98 -214 9 -310 -68 -74 -167 -113 -287 -113
-90 0 -147 29 -177 90 -20 39 -23 59 -23 175 0 169 17 391 33 424 14 30 48 39
65 18 7 -8 18 -73 24 -146 9 -96 16 -131 25 -131 26 0 118 52 156 88 47 45 51
90 11 121 -21 17 -41 21 -95 21 -59 0 -68 3 -74 20 -14 44 23 61 127 57 59 -2
83 -7 105 -23z m353 -284 c18 -33 8 -141 -13 -154 -14 -9 -20 -7 -29 7 -9 18
-11 18 -25 -2 -18 -27 -47 -27 -73 -1 -17 17 -20 31 -18 78 3 49 6 57 23 57
12 0 21 -8 23 -20 11 -72 13 -72 39 -7 27 66 52 81 73 42z m184 -2 c9 -35 7
-92 -5 -149 -12 -55 -58 -117 -77 -105 -16 10 -15 31 3 46 8 7 15 23 15 36 0
22 -2 23 -20 12 -41 -26 -84 30 -77 99 9 86 51 93 63 10 l7 -52 23 50 c13 28
24 56 24 63 0 22 37 13 44 -10z"/>
<path d="M1883 3449 c-18 -12 -33 -23 -33 -25 0 -5 44 18 70 35 29 20 -5 10
-37 -10z"/>
<path d="M2092 3364 c9 -9 21 -15 27 -13 6 2 -2 10 -17 17 -25 11 -25 11 -10
-4z"/>
<path d="M2110 3025 c-19 -23 -8 -26 19 -4 16 13 18 19 8 19 -8 0 -20 -7 -27
-15z"/>
<path d="M1820 2886 c14 -15 39 -35 55 -43 35 -18 27 -9 -35 37 -41 31 -43 32
-20 6z"/>
<path d="M2980 3011 c0 -6 4 -13 10 -16 6 -3 7 1 4 9 -7 18 -14 21 -14 7z"/>
<path d="M2557 3079 c7 -7 15 -10 18 -7 3 3 -2 9 -12 12 -14 6 -15 5 -6 -5z"/>
<path d="M2216 3147 c-5 -15 -6 -31 -2 -34 11 -11 18 5 14 34 l-4 28 -8 -28z"/>
<path d="M2705 2829 c-4 -6 -5 -12 -2 -15 2 -3 7 2 10 11 7 17 1 20 -8 4z"/>
<path d="M2505 2759 c-4 -6 -5 -12 -2 -15 2 -3 7 2 10 11 7 17 1 20 -8 4z"/>
<path d="M2652 2414 c10 -10 20 -16 22 -13 3 3 -5 11 -17 18 -21 13 -21 12 -5
-5z"/>
<path d="M2106 2314 c-9 -8 -16 -20 -16 -26 0 -6 1 -9 3 -7 1 2 11 14 21 27
22 25 16 30 -8 6z"/>
<path d="M2210 2318 c0 -9 5 -20 11 -23 17 -11 18 -2 3 19 -12 17 -14 17 -14
4z"/>
<path d="M2410 2203 c-3 -23 -2 -39 3 -34 5 5 7 24 5 42 -3 33 -4 33 -8 -8z"/>
<path d="M2464 1941 c13 -15 17 -32 15 -64 -4 -48 5 -54 15 -11 8 32 -9 80
-32 89 -13 5 -13 2 2 -14z"/>
<path d="M2340 1943 c-14 -2 -53 -13 -88 -25 l-63 -20 3 -66 3 -67 60 0 c112
0 205 55 205 121 0 53 -38 71 -120 57z"/>
<path d="M2090 1713 c0 -13 57 -63 72 -63 6 0 9 1 7 3 -2 1 -21 18 -42 36 -20
19 -37 30 -37 24z"/>
</g>
</svg>
